<mxfile host="app.diagrams.net" modified="2023-08-03T15:44:23.633Z" agent="Mozilla/5.0 (Windows NT 10.0; Win64; x64) AppleWebKit/537.36 (KHTML, like Gecko) Chrome/115.0.0.0 Safari/537.36" etag="DmRvdZD7Ddl3yKYzn6RA" version="21.6.6" type="github">
  <diagram name="Page-1" id="30KtFLkSbqT5_gYMwsqc">
    <mxGraphModel dx="1050" dy="566" grid="1" gridSize="10" guides="1" tooltips="1" connect="1" arrows="1" fold="1" page="1" pageScale="1" pageWidth="850" pageHeight="1100" math="0" shadow="0">
      <root>
        <mxCell id="0" />
        <mxCell id="1" parent="0" />
        <mxCell id="9Cp5fAGlEfF_APMF3tyh-11" style="edgeStyle=orthogonalEdgeStyle;rounded=0;orthogonalLoop=1;jettySize=auto;html=1;" edge="1" parent="1" source="9Cp5fAGlEfF_APMF3tyh-1" target="9Cp5fAGlEfF_APMF3tyh-8">
          <mxGeometry relative="1" as="geometry" />
        </mxCell>
        <mxCell id="9Cp5fAGlEfF_APMF3tyh-25" style="edgeStyle=orthogonalEdgeStyle;rounded=0;orthogonalLoop=1;jettySize=auto;html=1;entryX=0;entryY=0.5;entryDx=0;entryDy=0;" edge="1" parent="1" source="9Cp5fAGlEfF_APMF3tyh-1" target="9Cp5fAGlEfF_APMF3tyh-22">
          <mxGeometry relative="1" as="geometry" />
        </mxCell>
        <mxCell id="9Cp5fAGlEfF_APMF3tyh-1" value="Actor" style="shape=umlActor;verticalLabelPosition=bottom;verticalAlign=top;html=1;outlineConnect=0;" vertex="1" parent="1">
          <mxGeometry x="70" y="200" width="30" height="60" as="geometry" />
        </mxCell>
        <mxCell id="9Cp5fAGlEfF_APMF3tyh-3" value="MinioTube" style="swimlane;whiteSpace=wrap;html=1;" vertex="1" parent="1">
          <mxGeometry x="240" y="70" width="780" height="430" as="geometry" />
        </mxCell>
        <mxCell id="9Cp5fAGlEfF_APMF3tyh-14" style="edgeStyle=orthogonalEdgeStyle;rounded=0;orthogonalLoop=1;jettySize=auto;html=1;entryX=0;entryY=0.5;entryDx=0;entryDy=0;" edge="1" parent="9Cp5fAGlEfF_APMF3tyh-3" source="9Cp5fAGlEfF_APMF3tyh-8" target="9Cp5fAGlEfF_APMF3tyh-12">
          <mxGeometry relative="1" as="geometry">
            <Array as="points">
              <mxPoint x="260" y="110" />
            </Array>
          </mxGeometry>
        </mxCell>
        <mxCell id="9Cp5fAGlEfF_APMF3tyh-15" value="file" style="edgeLabel;html=1;align=center;verticalAlign=middle;resizable=0;points=[];" vertex="1" connectable="0" parent="9Cp5fAGlEfF_APMF3tyh-14">
          <mxGeometry x="-0.1" y="3" relative="1" as="geometry">
            <mxPoint as="offset" />
          </mxGeometry>
        </mxCell>
        <mxCell id="9Cp5fAGlEfF_APMF3tyh-8" value="uploadPage" style="ellipse;whiteSpace=wrap;html=1;" vertex="1" parent="9Cp5fAGlEfF_APMF3tyh-3">
          <mxGeometry x="55" y="70" width="120" height="80" as="geometry" />
        </mxCell>
        <mxCell id="9Cp5fAGlEfF_APMF3tyh-10" style="edgeStyle=orthogonalEdgeStyle;rounded=0;orthogonalLoop=1;jettySize=auto;html=1;" edge="1" parent="9Cp5fAGlEfF_APMF3tyh-3" source="9Cp5fAGlEfF_APMF3tyh-9" target="9Cp5fAGlEfF_APMF3tyh-8">
          <mxGeometry relative="1" as="geometry">
            <Array as="points">
              <mxPoint x="520" y="60" />
              <mxPoint x="115" y="60" />
            </Array>
          </mxGeometry>
        </mxCell>
        <mxCell id="9Cp5fAGlEfF_APMF3tyh-24" style="edgeStyle=orthogonalEdgeStyle;rounded=0;orthogonalLoop=1;jettySize=auto;html=1;entryX=0.5;entryY=1;entryDx=0;entryDy=0;" edge="1" parent="9Cp5fAGlEfF_APMF3tyh-3" source="9Cp5fAGlEfF_APMF3tyh-9" target="9Cp5fAGlEfF_APMF3tyh-22">
          <mxGeometry relative="1" as="geometry">
            <Array as="points">
              <mxPoint x="680" y="70" />
              <mxPoint x="680" y="380" />
              <mxPoint x="120" y="380" />
            </Array>
          </mxGeometry>
        </mxCell>
        <mxCell id="9Cp5fAGlEfF_APMF3tyh-9" value="static" style="ellipse;whiteSpace=wrap;html=1;" vertex="1" parent="9Cp5fAGlEfF_APMF3tyh-3">
          <mxGeometry x="460" y="30" width="120" height="80" as="geometry" />
        </mxCell>
        <mxCell id="9Cp5fAGlEfF_APMF3tyh-17" style="edgeStyle=orthogonalEdgeStyle;rounded=0;orthogonalLoop=1;jettySize=auto;html=1;entryX=0.167;entryY=0.25;entryDx=0;entryDy=0;entryPerimeter=0;" edge="1" parent="9Cp5fAGlEfF_APMF3tyh-3" source="9Cp5fAGlEfF_APMF3tyh-12" target="9Cp5fAGlEfF_APMF3tyh-16">
          <mxGeometry relative="1" as="geometry" />
        </mxCell>
        <mxCell id="9Cp5fAGlEfF_APMF3tyh-18" value="file" style="edgeLabel;html=1;align=center;verticalAlign=middle;resizable=0;points=[];" vertex="1" connectable="0" parent="9Cp5fAGlEfF_APMF3tyh-17">
          <mxGeometry x="-0.3461" y="-4" relative="1" as="geometry">
            <mxPoint as="offset" />
          </mxGeometry>
        </mxCell>
        <mxCell id="9Cp5fAGlEfF_APMF3tyh-20" style="edgeStyle=orthogonalEdgeStyle;rounded=0;orthogonalLoop=1;jettySize=auto;html=1;" edge="1" parent="9Cp5fAGlEfF_APMF3tyh-3" source="9Cp5fAGlEfF_APMF3tyh-12" target="9Cp5fAGlEfF_APMF3tyh-19">
          <mxGeometry relative="1" as="geometry">
            <Array as="points">
              <mxPoint x="440" y="200" />
              <mxPoint x="440" y="230" />
            </Array>
          </mxGeometry>
        </mxCell>
        <mxCell id="9Cp5fAGlEfF_APMF3tyh-21" value="fileName&amp;nbsp; &amp;amp; path" style="edgeLabel;html=1;align=center;verticalAlign=middle;resizable=0;points=[];" vertex="1" connectable="0" parent="9Cp5fAGlEfF_APMF3tyh-20">
          <mxGeometry x="-0.1314" y="1" relative="1" as="geometry">
            <mxPoint as="offset" />
          </mxGeometry>
        </mxCell>
        <mxCell id="9Cp5fAGlEfF_APMF3tyh-12" value="upload controller" style="ellipse;whiteSpace=wrap;html=1;" vertex="1" parent="9Cp5fAGlEfF_APMF3tyh-3">
          <mxGeometry x="260" y="80" width="120" height="80" as="geometry" />
        </mxCell>
        <mxCell id="9Cp5fAGlEfF_APMF3tyh-16" value="s3" style="shape=cylinder3;whiteSpace=wrap;html=1;boundedLbl=1;backgroundOutline=1;size=15;" vertex="1" parent="9Cp5fAGlEfF_APMF3tyh-3">
          <mxGeometry x="600" y="140" width="60" height="80" as="geometry" />
        </mxCell>
        <mxCell id="9Cp5fAGlEfF_APMF3tyh-19" value="h2" style="shape=cylinder3;whiteSpace=wrap;html=1;boundedLbl=1;backgroundOutline=1;size=15;" vertex="1" parent="9Cp5fAGlEfF_APMF3tyh-3">
          <mxGeometry x="500" y="190" width="60" height="80" as="geometry" />
        </mxCell>
        <mxCell id="9Cp5fAGlEfF_APMF3tyh-28" style="edgeStyle=orthogonalEdgeStyle;rounded=0;orthogonalLoop=1;jettySize=auto;html=1;entryX=0;entryY=0.5;entryDx=0;entryDy=0;" edge="1" parent="9Cp5fAGlEfF_APMF3tyh-3" source="9Cp5fAGlEfF_APMF3tyh-22" target="9Cp5fAGlEfF_APMF3tyh-27">
          <mxGeometry relative="1" as="geometry" />
        </mxCell>
        <mxCell id="9Cp5fAGlEfF_APMF3tyh-22" value="streamPage" style="ellipse;whiteSpace=wrap;html=1;" vertex="1" parent="9Cp5fAGlEfF_APMF3tyh-3">
          <mxGeometry x="60" y="190" width="120" height="80" as="geometry" />
        </mxCell>
        <mxCell id="9Cp5fAGlEfF_APMF3tyh-29" style="edgeStyle=orthogonalEdgeStyle;rounded=0;orthogonalLoop=1;jettySize=auto;html=1;entryX=0.5;entryY=1;entryDx=0;entryDy=0;entryPerimeter=0;" edge="1" parent="9Cp5fAGlEfF_APMF3tyh-3" source="9Cp5fAGlEfF_APMF3tyh-27" target="9Cp5fAGlEfF_APMF3tyh-19">
          <mxGeometry relative="1" as="geometry" />
        </mxCell>
        <mxCell id="9Cp5fAGlEfF_APMF3tyh-30" style="edgeStyle=orthogonalEdgeStyle;rounded=0;orthogonalLoop=1;jettySize=auto;html=1;" edge="1" parent="9Cp5fAGlEfF_APMF3tyh-3" source="9Cp5fAGlEfF_APMF3tyh-27" target="9Cp5fAGlEfF_APMF3tyh-16">
          <mxGeometry relative="1" as="geometry" />
        </mxCell>
        <mxCell id="9Cp5fAGlEfF_APMF3tyh-27" value="streamController" style="ellipse;whiteSpace=wrap;html=1;" vertex="1" parent="9Cp5fAGlEfF_APMF3tyh-3">
          <mxGeometry x="240" y="260" width="120" height="80" as="geometry" />
        </mxCell>
      </root>
    </mxGraphModel>
  </diagram>
</mxfile>
